<svg xmlns="http://www.w3.org/2000/svg" viewBox="0 0 24 32" fill="currentColor"><path d="M20 30h-16q-0.875 0-1.438-0.563t-0.563-1.438v-24q0-0.875 0.563-1.438t1.438-0.563h8v7q0.063 1.25 0.875 2.125 0.875 0.813 2.125 0.875h7v16q0 0.875-0.563 1.438t-1.438 0.563v0zM15 10q-0.938-0.063-1-1v-6.938q0.25 0.063 0.438 0.25l7.25 7.25q0.188 0.188 0.313 0.438h-7zM4 0q-1.688 0.063-2.813 1.188v0 0q-1.125 1.125-1.188 2.813v24q0.063 1.688 1.188 2.813t2.813 1.188h16q1.688-0.063 2.813-1.188t1.188-2.813v-17.75q0-1.25-0.875-2.125l-7.25-7.25q-0.875-0.875-2.125-0.875h-9.75zM9.688 18.688q0.625-0.688 0-1.375-0.688-0.625-1.375 0l-3 3q-0.625 0.688 0 1.375l3 3q0.688 0.625 1.375 0 0.625-0.688 0-1.375l-2.25-2.313 2.25-2.313zM18.688 20.313l-3-3q-0.688-0.625-1.375 0-0.625 0.688 0 1.375l2.25 2.313-2.25 2.313q-0.625 0.688 0 1.375 0.688 0.625 1.375 0l3-3q0.625-0.688 0-1.375v0z"></path></svg>